<svg width="500" height="500" viewBox="0 0 500 500" fill="none" xmlns="http://www.w3.org/2000/svg">
<g clip-path="url(#clip0_1_39)">
<rect width="500" height="500" fill="white"/>
<rect width="1200" height="1200" transform="matrix(-1 0 0 1 1200 0)" fill="url(#paint0_linear_1_39)"/>
<g style="mix-blend-mode:multiply" opacity="0.2">
<path d="M130.209 122.917C128.095 122.917 125.982 122.11 124.368 120.498L106.17 102.299C102.943 99.0727 102.943 93.8423 106.17 90.6175L124.368 72.4186C127.594 69.1938 132.823 69.1938 136.049 72.4186L154.247 90.6175C157.473 93.844 157.473 99.0743 154.247 102.299L136.049 120.498C134.437 122.11 132.324 122.917 130.209 122.917ZM123.778 96.5629L130.314 103.099L136.849 96.5646L130.314 90.0282L123.778 96.5629Z" fill="#5F2998"/>
</g>
<g style="mix-blend-mode:multiply" opacity="0.2">
<path d="M471.253 482.5C464.759 482.5 458.271 480.024 453.314 475.073L397.431 419.186C387.523 409.278 387.523 393.217 397.431 383.314L453.314 327.427C463.222 317.524 479.278 317.524 489.185 327.427L545.069 383.314C554.977 393.222 554.977 409.283 545.069 419.186L489.185 475.073C484.234 480.024 477.746 482.5 471.253 482.5ZM451.504 401.571L471.574 421.643L491.643 401.576L471.574 381.504L451.504 401.571Z" fill="#5F2998"/>
</g>
<path d="M-245.354 320.196C-344.335 414.947 -299.756 562.904 -224.737 620.771C-201.25 638.388 -158.642 658.476 -127.294 679.495C-111.269 690.248 -36.6983 760.459 2.80484 760.459C42.308 760.459 93.3931 757.397 119.655 718.376C145.916 679.354 186.695 646.777 226.823 617.37C258.912 593.883 292.394 570.064 312.215 537.563C337.271 495.967 336.161 443.657 309.365 403.161C283.704 364.536 238.554 339.681 193.149 320.196C147.744 300.711 99.7189 284.729 59.9366 257.163C42.9509 245.574 28.2398 231.626 2.80484 214.626C-22.6301 197.625 -80.7901 200.292 -127.294 237.543C-173.799 274.793 -172.878 271.394 -204.162 290.061C-210.846 294.011 -229.702 305.918 -245.354 320.196Z" fill="#541D88"/>
</g>
<defs>
<linearGradient id="paint0_linear_1_39" x1="131.012" y1="139.976" x2="740.548" y2="706.15" gradientUnits="userSpaceOnUse">
<stop stop-color="#5532AE"/>
<stop offset="1" stop-color="#7431A5"/>
</linearGradient>
<clipPath id="clip0_1_39">
<rect width="500" height="500" fill="white"/>
</clipPath>
</defs>
</svg>
