<svg width="25" height="25" viewBox="0 0 25 25" fill="none" xmlns="http://www.w3.org/2000/svg">
<path d="M12.5 25C10.3442 25 8.59595 23.2518 8.59595 21.0959C8.59595 18.5091 6.49088 16.4041 3.90405 16.4041C1.74824 16.4041 0 14.6558 0 12.5C0 10.3442 1.74824 8.59595 3.90405 8.59595C6.49088 8.59595 8.59595 6.49088 8.59595 3.90405C8.59595 1.74824 10.3442 0 12.5 0C14.6558 0 16.4041 1.74824 16.4041 3.90405C16.4041 6.49088 18.5083 8.59595 21.0959 8.59595C23.2518 8.59595 25 10.3442 25 12.5C25 14.6558 23.2518 16.4041 21.0959 16.4041C18.5091 16.4041 16.4041 18.5083 16.4041 21.0959C16.4041 23.2518 14.6558 25 12.5 25Z" fill="#D8EE4E"/>
</svg>
