<svg width="56" height="46" viewBox="0 0 56 46" fill="none" xmlns="http://www.w3.org/2000/svg">
<path d="M19.3554 20.041C21.4787 21.1066 23.109 22.7049 24.2464 24.8361C25.4597 26.8852 26.0663 29.3033 26.0663 32.0902C26.0663 36.1885 24.8531 39.5082 22.4265 42.0492C20 44.5902 16.891 45.8607 13.0995 45.8607C9.30804 45.8607 6.19904 44.5902 3.7725 42.0492C1.34596 39.5082 0.13269 36.1885 0.13269 32.0902C0.13269 30.2049 0.360178 28.3197 0.815155 26.4344C1.27013 24.5492 2.29383 21.7623 3.88624 18.0738L11.1659 0H24.7014L19.3554 20.041ZM49.1564 20.041C51.2796 21.1066 52.9099 22.7049 54.0474 24.8361C55.2607 26.8852 55.8673 29.3033 55.8673 32.0902C55.8673 36.1885 54.654 39.5082 52.2275 42.0492C49.8009 44.5902 46.6919 45.8607 42.9005 45.8607C39.109 45.8607 36 44.5902 33.5734 42.0492C31.1469 39.5082 29.9336 36.1885 29.9336 32.0902C29.9336 30.2049 30.1611 28.3197 30.6161 26.4344C31.0711 24.5492 32.0948 21.7623 33.6872 18.0738L40.9668 0H54.5024L49.1564 20.041Z" fill="#D8EE4E"/>
</svg>
